<svg width="103" height="132" viewBox="0 0 103 132" fill="none" xmlns="http://www.w3.org/2000/svg">
<g filter="url(#filter0_d_18_52)">
<mask id="path-1-outside-1_18_52" maskUnits="userSpaceOnUse" x="6.56836" y="0.527832" width="90" height="118" fill="black">
<rect fill="white" x="6.56836" y="0.527832" width="90" height="118"/>
<path fill-rule="evenodd" clip-rule="evenodd" d="M63.2935 41.6187L51.1166 20.5278L38.9395 41.6193C25.8674 46.5438 16.5684 59.1664 16.5684 73.9608C16.5684 93.0416 32.0364 108.51 51.1172 108.51C70.198 108.51 85.6661 93.0416 85.6661 73.9608C85.6661 59.1658 76.3663 46.5429 63.2935 41.6187Z"/>
</mask>
<path fill-rule="evenodd" clip-rule="evenodd" d="M63.2935 41.6187L51.1166 20.5278L38.9395 41.6193C25.8674 46.5438 16.5684 59.1664 16.5684 73.9608C16.5684 93.0416 32.0364 108.51 51.1172 108.51C70.198 108.51 85.6661 93.0416 85.6661 73.9608C85.6661 59.1658 76.3663 46.5429 63.2935 41.6187Z" fill="black"/>
<path d="M51.1166 20.5278L59.7062 15.5687L51.1166 0.69117L42.5271 15.5687L51.1166 20.5278ZM63.2935 41.6187L54.7039 46.5779L56.4776 49.65L59.7973 50.9005L63.2935 41.6187ZM38.9395 41.6193L42.436 50.9009L45.7554 49.6504L47.529 46.5785L38.9395 41.6193ZM42.5271 25.487L54.7039 46.5779L71.883 36.6596L59.7062 15.5687L42.5271 25.487ZM47.529 46.5785L59.7062 25.487L42.5271 15.5687L30.3499 36.6601L47.529 46.5785ZM26.4867 73.9608C26.4867 63.4292 33.101 54.4176 42.436 50.9009L35.4429 32.3377C18.6338 38.6701 6.65003 54.9035 6.65003 73.9608H26.4867ZM51.1172 98.5913C37.5141 98.5913 26.4867 87.5638 26.4867 73.9608H6.65003C6.65003 98.5193 26.5587 118.428 51.1172 118.428V98.5913ZM75.7477 73.9608C75.7477 87.5638 64.7203 98.5913 51.1172 98.5913V118.428C75.6758 118.428 95.5844 98.5193 95.5844 73.9608H75.7477ZM59.7973 50.9005C69.1329 54.4169 75.7477 63.4288 75.7477 73.9608H95.5844C95.5844 54.9028 83.5997 38.6688 66.7896 32.337L59.7973 50.9005Z" fill="white" mask="url(#path-1-outside-1_18_52)"/>
</g>
<path d="M46.0917 55.3121C42.9674 55.2955 39.9258 58.3041 41.3144 62.04H36.0742C35.1973 62.04 34.3564 62.3883 33.7364 63.0084C33.1164 63.6284 32.7681 64.4693 32.7681 65.3461V68.6522C32.7681 69.0907 32.9422 69.5111 33.2522 69.8211C33.5622 70.1311 33.9827 70.3053 34.4211 70.3053H49.2986V65.3461H52.6047V70.3053H67.4822C67.9206 70.3053 68.3411 70.1311 68.6511 69.8211C68.9611 69.5111 69.1353 69.0907 69.1353 68.6522V65.3461C69.1353 64.4693 68.787 63.6284 68.1669 63.0084C67.5469 62.3883 66.706 62.04 65.8292 62.04H60.589C62.5231 56.6345 55.2496 52.816 51.8939 57.4776L50.9517 58.7339L50.0094 57.4445C48.968 55.9733 47.5298 55.3286 46.0917 55.3121ZM45.9925 58.7339C47.4637 58.7339 48.2076 60.5192 47.1662 61.5606C46.1248 62.6021 44.3395 61.8582 44.3395 60.387C44.3395 59.9485 44.5136 59.5281 44.8236 59.2181C45.1336 58.9081 45.5541 58.7339 45.9925 58.7339ZM55.9108 58.7339C57.3821 58.7339 58.1259 60.5192 57.0845 61.5606C56.0431 62.6021 54.2578 61.8582 54.2578 60.387C54.2578 59.9485 54.4319 59.5281 54.742 59.2181C55.052 58.9081 55.4724 58.7339 55.9108 58.7339ZM34.4211 71.9583V85.1828C34.4211 86.0596 34.7694 86.9005 35.3895 87.5206C36.0095 88.1406 36.8504 88.4889 37.7272 88.4889H64.1761C65.0529 88.4889 65.8939 88.1406 66.5139 87.5206C67.1339 86.9005 67.4822 86.0596 67.4822 85.1828V71.9583H52.6047V85.1828H49.2986V71.9583H34.4211Z" fill="#F1F1EB"/>
<defs>
<filter id="filter0_d_18_52" x="0.0376821" y="0.691406" width="102.159" height="130.961" filterUnits="userSpaceOnUse" color-interpolation-filters="sRGB">
<feFlood flood-opacity="0" result="BackgroundImageFix"/>
<feColorMatrix in="SourceAlpha" type="matrix" values="0 0 0 0 0 0 0 0 0 0 0 0 0 0 0 0 0 0 127 0" result="hardAlpha"/>
<feOffset dy="6.61222"/>
<feGaussianBlur stdDeviation="3.30611"/>
<feComposite in2="hardAlpha" operator="out"/>
<feColorMatrix type="matrix" values="0 0 0 0 0 0 0 0 0 0 0 0 0 0 0 0 0 0 0.25 0"/>
<feBlend mode="normal" in2="BackgroundImageFix" result="effect1_dropShadow_18_52"/>
<feBlend mode="normal" in="SourceGraphic" in2="effect1_dropShadow_18_52" result="shape"/>
</filter>
</defs>
</svg>
