<svg width="969" height="798" viewBox="0 0 969 798" fill="none" xmlns="http://www.w3.org/2000/svg">
<mask id="mask0_1_1214" style="mask-type:alpha" maskUnits="userSpaceOnUse" x="0" y="0" width="969" height="798">
<path d="M969 0H1.84091e-05V798H969V0Z" fill="#CADB7F"/>
</mask>
<g mask="url(#mask0_1_1214)">
<path d="M297.363 825.113C310.157 813.307 318.195 803.386 321.393 795.515L325.986 797.319C322.541 805.846 314.012 816.422 300.726 828.721L297.363 825.113V825.113Z" fill="#569188"/>
<path d="M21.3081 986.469C35.6603 977.614 50.7506 968.103 66.5791 958.265C173.688 891.197 306.959 807.732 412.673 780.101L413.903 784.857C308.845 812.241 175.902 895.543 69.1215 962.364C53.3751 972.285 38.2027 981.714 23.8505 990.569L21.226 986.387L21.3081 986.469Z" fill="#569188"/>
<path d="M252.174 735.663C255.373 737.221 250.042 757.308 236.838 792.892C224.864 825.113 205.837 851.924 177.132 870.782C179.101 840.855 192.551 815.849 208.297 789.202C222.896 764.523 249.058 734.187 252.256 735.663L252.174 735.663Z" fill="#609790"/>
<path d="M157.86 832.738C154.251 848.644 139.981 888.081 123.824 894.395C108.242 876.029 124.398 846.431 133.83 828.721C145.886 806.174 151.053 775.51 165.159 754.438C169.505 776.083 162.534 811.831 157.86 832.738V832.738Z" fill="#76AB9F"/>
<path d="M373.717 759.521C364.778 773.132 337.468 804.944 320.163 805.19C312.044 782.561 337.632 760.505 352.722 747.223C371.913 730.415 387.659 703.441 408.245 688.765C404.718 710.574 385.527 741.566 373.799 759.521L373.717 759.521Z" fill="#76AB9F"/>
<path d="M455.402 755.258C437.769 758.374 392.006 778.133 390.038 789.284C396.517 795.597 427.436 791.498 452.86 783.709C478.037 776.002 512.811 770.18 533.888 755.504C507.644 749.273 478.53 751.159 455.402 755.258Z" fill="#609790"/>
<path d="M260.704 821.998C260.376 795.597 266.199 769.442 276.286 744.435C281.699 730.989 289.244 718.363 293.919 704.507C296.953 695.488 298.102 685.075 302.776 677.204C315.898 729.186 289.654 782.889 260.786 821.998L260.704 821.998Z" fill="#76AB9F"/>
<path d="M551.849 888.655C634.764 813.307 780.665 657.609 826.182 461.735L830.857 462.801C785.094 659.986 638.455 816.504 555.13 892.181L551.931 888.655L551.849 888.655Z" fill="#569188"/>
<path d="M804.694 534.46C809.369 530.853 813.388 526.753 817.652 522.49C820.605 519.538 823.557 516.586 826.674 513.717L829.872 517.324C826.756 520.112 823.885 522.981 821.015 525.851C816.832 530.115 812.486 534.46 807.565 538.314L804.612 534.542L804.694 534.46Z" fill="#569188"/>
<path d="M785.34 540.609C785.34 537.74 785.586 535.034 786.242 532.656L790.916 533.886C789.194 540.363 790.916 550.53 792.311 559.549C793.049 564.222 793.787 568.568 793.951 572.093L789.112 572.339C788.948 569.06 788.292 564.796 787.554 560.287C786.488 553.81 785.34 546.759 785.34 540.609V540.609Z" fill="#569188"/>
<path d="M771.315 610.136C779.025 604.725 787.636 599.232 793.541 600.134L792.803 604.889C788.046 604.151 777.548 611.612 774.104 614.072L771.315 610.136V610.136Z" fill="#569188"/>
<path d="M788.046 574.635C792.064 568.65 797.641 565.124 802.972 561.763C805.515 560.123 808.139 558.483 810.599 556.515L813.552 560.287C810.927 562.337 808.139 564.14 805.515 565.78C800.348 569.06 795.509 572.093 792.064 577.259L788.046 574.553L788.046 574.635Z" fill="#569188"/>
<path d="M764.016 581.276L768.691 580.21C771.233 591.689 773.612 608.251 770.249 621.615L765.574 620.467C768.691 608.005 766.476 592.263 764.016 581.276V581.276Z" fill="#569188"/>
<path d="M728.341 645.31L732.769 643.425C737.854 655.559 737.69 666.218 736.952 677.86L732.113 677.532C732.851 666.463 733.015 656.379 728.341 645.31V645.31Z" fill="#569188"/>
<path d="M713.496 706.31C714.07 701.965 739.248 689.83 739.494 689.666C745.563 687.371 751.714 685.239 757.783 683.107C763.934 680.976 770.085 678.762 776.154 676.548L777.876 681.058C771.807 683.353 765.656 685.485 759.423 687.699C753.354 689.831 747.285 691.962 741.216 694.258C736.952 695.898 719.729 705.736 718.007 707.786L716.285 706.474L714.562 708.852L713.496 706.392L713.496 706.31ZM718.253 706.392C718.253 705.819 717.843 705.245 717.351 704.917L716.367 706.31L718.253 706.474L718.253 706.392Z" fill="#569188"/>
<path d="M649.69 787.972C654.119 784.282 660.352 747.387 657.892 724.676L662.648 724.184C664.863 745.091 659.86 785.676 652.807 791.662L649.69 787.972V787.972Z" fill="#569188"/>
<path d="M667.815 767.147C681.429 760.178 702.015 756.98 718.991 759.112L718.417 763.867C702.589 761.817 682.742 764.933 670.03 771.41L667.815 767.147Z" fill="#569188"/>
<path d="M843.486 301.199C846.931 301.363 851.606 334.815 851.688 376.63C851.688 414.509 850.786 436.974 823.311 481.823C827.248 448.371 818.555 419.429 823.967 385.403C828.97 354.001 840.042 300.954 843.568 301.118L843.486 301.199Z" fill="#609790"/>
<path d="M619.182 639.571C623.528 639.735 627.219 664.906 629.597 711.23C631.729 753.209 623.2 792.482 599.991 827.491C587.771 792.891 590.723 758.374 595.562 720.822C600.073 686.059 614.835 639.407 619.182 639.571V639.571Z" fill="#609790"/>
<path d="M894.744 618.5C896.303 621.041 872.191 642.031 842.174 662.528C815.028 681.058 794.279 684.009 761.72 685.157C779.927 663.84 804.202 651.213 831.185 638.505C856.116 626.699 893.186 615.958 894.744 618.5V618.5Z" fill="#76AB9F"/>
<path d="M787.718 473.706C792.31 488.874 799.2 529.213 788.62 542.413C766.558 534.378 765.984 501.5 765.41 481.905C764.754 456.98 754.339 428.448 756.143 403.851C770.249 420.085 781.649 453.783 787.718 473.788L787.718 473.706Z" fill="#76AB9F"/>
<path d="M842.092 612.35C828.724 615.056 794.361 617.187 785.668 606.037C796.575 586.605 823.64 589.475 839.796 591.033C860.299 593.001 885.723 586.442 905.57 590.623C889.496 601.938 859.725 608.907 842.174 612.432L842.092 612.35Z" fill="#76AB9F"/>
<path d="M773.448 747.961C759.751 756.488 718.335 771.246 704.885 761.571C710.052 734.269 745.153 728.284 763.442 723.692C786.652 717.789 812.322 699.833 835.613 696.882C821.917 716.641 791.572 736.729 773.448 747.961V747.961Z" fill="#609790"/>
<path d="M855.788 461.899C865.548 452.553 877.932 444.026 888.019 434.433C896.385 426.48 908.195 412.378 919.922 411.64C911.967 430.579 898.435 454.11 886.461 471C870.469 493.711 845.045 510.519 820.441 522.572C827.084 499.533 837.335 479.527 855.788 461.817L855.788 461.899Z" fill="#76AB9F"/>
<path d="M714.726 789.612C729.817 788.956 746.711 790.842 762.212 790.186C775.17 789.694 795.263 786.66 806.253 794.367C786.242 804.206 758.111 813.799 735.968 819.046C706.197 826.179 671.096 823.228 640.915 815.521C662.566 801.418 686.268 790.842 714.808 789.53L714.726 789.612Z" fill="#76AB9F"/>
<path d="M704.393 599.068C702.014 587.426 701.604 574.307 699.226 562.419C697.258 552.416 692.337 536.92 697.422 528.393C708.001 543.643 719.319 565.206 726.372 582.26C735.886 605.135 737.69 632.274 734.82 655.723C720.467 639.243 708.904 621.123 704.393 599.15L704.393 599.068Z" fill="#76AB9F"/>
<path d="M803.464 563.566C820.605 546.267 841.764 533.23 864.892 523.555C877.276 518.39 890.644 515.11 902.946 509.207C910.901 505.354 918.528 499.369 926.812 497.319C901.224 539.544 849.391 560.861 803.464 563.485L803.464 563.566Z" fill="#609790"/>
<path d="M660.516 735.499C651.577 711.394 648.378 685.403 649.362 659.166C649.854 645.064 652.643 630.962 652.397 616.696C652.233 607.431 649.854 597.428 651.577 588.737C680.691 632.192 674.212 690.159 660.516 735.581L660.516 735.499Z" fill="#76AB9F"/>
<path d="M767.789 586.196C775.006 568.404 752.288 541.183 741.955 527.901C728.669 510.765 710.626 503.222 697.504 485.594C691.763 501.664 715.711 528.885 724.896 541.265C736.46 556.843 755.077 574.635 767.789 586.196V586.196Z" fill="#609790"/>
<path d="M520.848 680.975C513.385 691.142 497.393 710.081 489.848 702.784C482.302 695.487 499.443 675.236 509.367 671.956C499.771 673.842 473.691 679.335 471.723 668.431C469.836 657.526 487.387 654.492 498.131 655.066C488.453 649.737 480.908 631.043 486.813 624.402C492.062 618.499 510.433 632.929 516.01 644.326C512.565 637.521 515.6 608.66 523.309 606.61C536.595 603.085 536.677 630.634 532.494 640.062C535.939 633.503 549.717 624.156 555.95 627.6C562.183 631.043 544.796 649.327 539.793 652.935C547.339 649.983 569.974 651.705 570.138 662.773C570.302 673.842 546.436 670.644 539.629 666.709C544.468 670.48 565.381 687.698 560.133 698.357C554.884 709.015 533.478 687.78 529.214 682.697C531.346 689.174 536.677 716.067 529.296 718.608C521.915 721.068 515.764 688.354 520.766 681.057L520.848 680.975Z" fill="#EBDFE1"/>
<path d="M521.422 675.236C528.558 675.646 534.462 670.071 534.626 662.938C534.79 655.887 531.018 649.655 523.965 649.245C516.83 648.836 513.221 653.263 511.335 660.068C509.531 666.463 514.369 674.826 521.422 675.236Z" fill="#FFA64D"/>
<path d="M825.69 130.579L833.071 126.234C833.645 127.3 893.104 230.607 895.564 379.008L887.035 379.172C884.657 233.148 826.346 131.645 825.772 130.579L825.69 130.579Z" fill="#76AB9F"/>
<path d="M832.661 130.825C816.34 139.106 751.55 114.919 760.654 93.93C769.757 72.9406 788.128 83.1074 788.128 83.1074C788.128 83.1074 777.056 61.8721 794.443 52.5253C811.83 43.1785 820.851 66.7914 820.851 66.7914C820.851 66.7914 822.163 49.2457 838.566 48.0159C854.968 46.786 858.987 117.379 832.661 130.743L832.661 130.825Z" fill="#EBDFE1"/>
<path d="M809.123 130.825C820.031 122.052 832.579 117.215 845.865 114.263C845.865 114.263 840.78 129.022 832.579 132.547C824.459 136.155 809.123 130.825 809.123 130.825V130.825Z" fill="#76AB9F"/>
</g>
</svg>
