<svg width="248" height="792" viewBox="0 0 248 792" fill="none" xmlns="http://www.w3.org/2000/svg">
<mask id="mask0_3009_22" style="mask-type:alpha" maskUnits="userSpaceOnUse" x="0" y="0" width="248" height="792">
<rect width="248" height="792" fill="#D9D9D9"/>
</mask>
<g mask="url(#mask0_3009_22)">
<path d="M151.11 166.656L155.196 163.96C164.839 178.338 173.338 187.897 180.529 192.227L177.996 196.393C170.151 191.655 161.08 181.688 151.11 166.656Z" fill="#569188"/>
<path d="M151.111 234.626C151.764 233.319 152.581 231.767 153.48 230.051C156.994 223.515 161.734 214.611 161.979 206.523L166.882 206.686C166.555 215.918 161.489 225.394 157.811 232.338C156.913 233.972 156.177 235.443 155.523 236.75L151.111 234.626Z" fill="#569188"/>
<path d="M128.229 171.312C134.44 158.323 142.122 139.288 137.545 124.093L142.285 122.704C147.351 139.533 139.261 159.793 132.642 173.436L128.229 171.312Z" fill="#569188"/>
<path d="M129.455 101.3L133.214 98.1958C144.818 112.329 162.633 123.603 169.252 127.851C170.559 128.668 171.458 129.24 171.948 129.648L169.088 133.651C168.598 133.325 167.781 132.753 166.555 132.017C159.691 127.688 141.468 116.169 129.292 101.382L129.455 101.3Z" fill="#569188"/>
<path d="M102.897 109.225C110.987 102.036 120.63 85.9419 120.63 76.6287L120.63 76.4653L125.533 76.4653C125.533 76.4653 125.533 76.4653 125.533 76.6287C125.533 88.3928 114.256 105.63 106.166 112.819L102.897 109.143L102.897 109.225Z" fill="#569188"/>
<path d="M98.4023 18.7069L102.325 15.7659C111.722 28.5919 130.926 38.2319 136.646 40.9278L134.603 45.3393C128.638 42.5617 108.535 32.4316 98.4023 18.7069Z" fill="#569188"/>
<path d="M85.0008 39.7028C85.6545 36.3533 86.6351 33.0855 87.6157 29.5726C90.149 20.8313 92.764 11.7632 90.721 1.30627L95.5424 0.325928C97.8305 11.9266 94.9703 21.975 92.3554 30.8797C91.3748 34.3109 90.4759 37.497 89.8221 40.6014L85.0008 39.7028V39.7028Z" fill="#569188"/>
<path d="M35.3161 -131.121L39.8106 -133C46.2663 -117.56 53.2123 -101.139 60.4852 -84.0649C109.679 31.7781 170.804 176.051 181.346 284.378L176.443 284.868C165.983 177.195 105.021 33.412 55.9907 -82.1859C48.7178 -99.2601 41.7718 -115.681 35.3161 -131.121V-131.121Z" fill="#569188"/>
<path d="M250.397 133.488C248.354 136.347 229.396 128.014 196.545 109.388C166.718 92.5588 143.347 69.6026 129.292 38.3953C158.465 45.0942 180.937 62.1684 204.717 81.8568C226.699 100.075 252.44 130.629 250.479 133.488L250.397 133.488Z" fill="#609790"/>
<path d="M91.1294 310.439C88.1059 309.867 88.923 277.189 94.0713 240.508C98.7292 207.258 110.742 189.612 132.315 164.205C135.911 192.635 128.72 219.594 119.731 248.759C111.477 275.718 94.153 311.092 91.1294 310.52L91.1294 310.439Z" fill="#76AB9F"/>
<path d="M169.66 25.4058C154.624 19.3604 118.015 -0.899874 114.337 -17.729C134.848 -30.1466 161.488 -9.6412 177.423 2.44961C197.689 17.8082 227.108 27.775 245.576 44.9309C223.594 45.8295 189.436 33.3302 169.66 25.4058V25.4058Z" fill="#76AB9F"/>
<path d="M207.741 249.331C195.728 238.384 168.68 206.523 171.213 189.449C194.748 185.037 212.48 213.63 223.104 230.541C236.669 252.027 260.694 271.797 271.889 294.344C251.051 287.482 223.431 263.709 207.741 249.331V249.331Z" fill="#76AB9F"/>
<path d="M199.16 330.372C198.915 312.562 186.576 264.444 175.952 260.686C168.761 266.078 167.862 297.122 171.54 323.428C175.217 349.407 175.462 384.535 186.576 407.573C196.872 382.738 199.569 353.818 199.16 330.372Z" fill="#609790"/>
<path d="M48.3912 95.8262C51.9868 78.5069 71.4356 35.3721 89.1684 33.4932C106.819 60.1256 85.1642 91.1696 75.1129 108.652C62.2832 130.873 57.2167 164.94 42.099 184.71C36.7873 158.078 43.7333 118.701 48.4729 95.9079L48.3912 95.8262Z" fill="#609790"/>
<path d="M78.7903 170.25C69.8014 180.707 57.9523 190.674 48.7182 201.376C40.955 210.281 30.4134 225.639 18.4826 227.927C24.5297 208.32 35.8068 183.485 46.185 165.348C60.077 141.003 83.9385 119.599 107.882 104.568C103.633 128.014 95.7876 150.562 78.7903 170.332L78.7903 170.25Z" fill="#76AB9F"/>
<path d="M59.2598 -29.4929C58.8512 -4.65774 52.6406 20.0141 42.4259 43.4604C36.9508 56.0414 29.4328 67.9688 24.6114 80.9583C21.5062 89.3728 20.117 99.2579 15.459 106.61C4.34544 57.4302 27.3081 5.06392 59.2598 -29.4929V-29.4929Z" fill="#76AB9F"/>
<path d="M157.076 227.927C156.259 252.762 149.558 277.27 138.934 300.553C133.214 313.053 125.533 324.817 120.466 337.724C117.197 346.139 115.645 355.942 110.905 363.213C100.69 313.87 124.552 261.912 157.076 227.927V227.927Z" fill="#609790"/>
<path d="M164.103 128.341C190.09 132.18 214.932 142.066 237.976 155.872C250.316 163.306 261.593 172.701 274.504 179.482C282.839 183.893 292.972 186.671 300 192.471C246.802 197.209 198.098 162.898 164.103 128.341V128.341Z" fill="#76AB9F"/>
<path d="M225.473 711.643C225.882 710.662 263.717 613.037 246.066 483.714L253.584 482.652C271.481 614.099 232.91 713.44 232.501 714.42L225.392 711.643L225.473 711.643Z" fill="#76AB9F"/>
<path d="M231.521 710.499C215.994 705.352 161.979 735.497 172.848 752.817C183.634 770.136 198.589 758.699 198.589 758.699C198.589 758.699 191.643 778.959 208.313 784.841C224.902 790.723 229.723 768.666 229.723 768.666C229.723 768.666 233.319 784.024 247.946 782.88C262.574 781.737 256.608 718.832 231.521 710.581L231.521 710.499Z" fill="#FFEBAB"/>
<path d="M210.764 713.685C221.633 719.975 233.318 722.589 245.494 723.406C245.494 723.406 238.957 711.071 231.275 709.028C223.594 706.986 210.764 713.766 210.764 713.766L210.764 713.685Z" fill="#76AB9F"/>
<path d="M128.311 717.606C128.883 716.789 188.946 632.562 248.845 518.434L255.791 522.11C195.565 636.81 135.257 721.364 134.685 722.181L128.311 717.606V717.606Z" fill="#76AB9F"/>
<path d="M131.498 716.217C146.861 724.304 164.757 785.33 143.919 789.088C123.081 792.846 120.466 773.811 120.466 773.811C120.466 773.811 110.742 792.846 93.9898 784.432C77.2377 776.017 89.9856 757.309 89.9856 757.309C89.9856 757.309 76.0936 765.152 66.0423 753.388C55.9911 741.624 106.738 703.064 131.498 716.135L131.498 716.217Z" fill="#EBDFE1"/>
<path d="M144.573 733.945C131.907 730.106 121.283 723.162 111.641 714.665C111.641 714.665 125.533 711.071 132.806 715.401C140.079 719.73 144.573 733.945 144.573 733.945Z" fill="#76AB9F"/>
</g>
</svg>
