<svg width="638" height="798" viewBox="0 0 638 798" fill="none" xmlns="http://www.w3.org/2000/svg">
<mask id="mask0_3009_24" style="mask-type:alpha" maskUnits="userSpaceOnUse" x="0" y="0" width="638" height="798">
<rect width="638" height="798" fill="#D9D9D9"/>
</mask>
<g mask="url(#mask0_3009_24)">
<path d="M194.187 836.838C209.031 817.243 207.555 761.981 228.551 777.314C246.101 790.104 184.838 873.159 193.859 885.212C202.963 897.264 259.715 920.303 266.604 913.58C273.494 906.857 264.636 885.704 278.496 861.189C294.899 832.247 285.385 792.564 299.328 795.843C313.27 799.123 310.071 821.916 307.201 841.921C304.494 860.697 293.095 917.434 304.33 921.861C315.566 926.289 365.922 926.289 370.515 920.549C375.107 914.81 372.647 892.837 373.057 877.669C373.549 858.975 350.257 832.083 363.462 827.491C376.666 822.982 380.93 843.315 384.129 858.565C387.081 872.832 388.065 912.678 399.793 915.056C411.521 917.434 448.755 903.742 452.609 898.576C456.464 893.411 429.072 857.171 438.831 857.745C447.689 858.319 453.758 879.391 462.861 894.231C480.166 886.524 493.862 878.325 501.243 870.782C511.003 860.779 515.185 838.314 515.513 811.339C502.555 815.521 464.583 826.753 455.808 816.177C446.048 804.37 511.823 799.697 515.103 790.35C518.384 781.003 516.661 749.191 508.788 735.991C504.934 729.514 481.806 729.924 457.448 738.942C431.86 748.453 404.714 766.573 391.592 757.964C364.938 740.582 435.141 733.859 469.012 722.38C485.661 716.723 500.095 711.394 501.407 702.293C502.719 693.192 495.338 681.878 491.976 673.761C488.203 664.66 478.362 643.67 469.258 638.423C460.155 633.176 428.58 650.558 399.629 669.661C358.459 696.8 351.242 725.742 334.183 720.413C317.124 715.165 344.271 667.038 373.959 648.508C398.317 633.258 443.998 615.876 438.995 606.447C433.993 597.018 397.005 564.469 371.335 559.877C345.665 555.368 306.955 676.466 290.634 668.513C273.247 659.986 309.169 613.416 318.436 590.213C324.669 574.635 333.035 555.122 330.82 546.021C328.524 536.92 291.536 536.674 278.988 545.037C266.522 553.4 261.274 634.816 239.704 632.356C215.264 629.486 241.755 591.279 246.019 573.569C247.742 566.272 247.66 558.893 246.921 552.58C236.67 556.187 226.746 560.779 217.725 566.764C177.128 593.329 172.864 653.673 172.864 653.673C172.864 653.673 136.532 669.333 120.458 693.93C111.354 707.786 101.759 735.991 103.727 767.885C110.698 763.703 118.899 760.424 127.183 757.554C146.128 750.913 169.337 726.644 171.224 743.944C172.946 760.26 114.963 791.908 113.487 809.535C113.159 813.389 116.931 817.324 119.063 821.096C129.971 840.691 164.745 875.701 172.946 872.996C182.623 869.798 178.605 857.745 194.515 836.838L194.187 836.838Z" fill="#76AB9F"/>
<path d="M103.481 767.967C110.452 763.785 118.653 760.506 126.937 757.636C145.882 750.995 169.091 726.726 170.978 744.026C172.7 760.342 114.717 791.99 113.241 809.617C112.913 813.471 116.685 817.406 118.817 821.178C129.725 840.774 164.499 875.783 172.7 873.077C182.377 869.88 178.359 857.827 194.269 836.92C209.113 817.324 207.637 762.064 228.633 777.396C246.183 790.186 184.92 873.241 193.941 885.294C203.045 897.346 259.797 920.385 266.686 913.662C273.576 906.939 264.718 885.786 278.578 861.271C294.981 832.328 285.467 792.645 299.41 795.925C313.352 799.205 310.153 821.998 307.283 842.003C304.576 860.779 293.177 917.516 304.412 921.943C315.648 926.371 366.004 926.371 370.597 920.631C375.189 914.892 372.729 892.919 373.139 877.751C373.631 859.057 350.339 832.165 363.544 827.573C376.748 823.064 381.012 843.397 384.211 858.647C387.163 872.914 388.147 912.76 399.875 915.138C411.603 917.516 448.837 903.823 452.692 898.658C456.546 893.493 429.154 857.253 438.913 857.827C447.771 858.401 453.84 879.473 462.943 894.313C480.248 886.606 493.944 878.407 501.325 870.864C503.539 868.568 505.426 865.616 507.066 862.091C448.591 839.544 350.75 778.133 307.283 748.289C261.848 717.133 253.974 704.671 172.864 653.837C172.864 653.837 136.532 669.497 120.458 694.094C111.354 707.95 101.759 736.155 103.727 768.049L103.481 767.967Z" fill="#609790"/>
<path d="M485.661 858.483C485.661 858.483 452.528 843.725 405.37 817.079C381.75 803.796 354.768 787.398 326.474 768.623C298.18 749.765 269.311 728.612 239.458 708.688C224.614 698.685 209.524 688.929 194.679 679.418C179.753 669.989 164.909 661.052 150.474 652.607C135.958 644.244 121.77 636.455 108.156 629.404C101.267 625.961 94.6238 622.681 88.2268 619.401C81.6658 616.368 75.3508 613.498 69.3638 610.71C57.1439 605.463 45.9082 600.626 35.7387 597.1C25.6511 593.165 16.6297 590.623 9.33054 588.327C1.94939 586.032 -3.95558 584.884 -7.89219 583.818C-11.9108 582.834 -14.0432 582.342 -14.0432 582.342L-14.6172 582.178C-19.1279 581.03 -21.8343 576.521 -20.7681 572.011C-19.62 567.502 -15.1093 564.796 -10.5986 565.862L-10.5165 565.862C-10.5165 565.862 -8.3022 566.436 -4.11955 567.502C0.0631025 568.732 6.29605 569.962 13.9232 572.503C21.5504 575.045 30.8999 577.833 41.2335 582.014C51.7311 585.786 63.2129 590.951 75.6788 596.444C81.8298 599.396 88.2268 602.43 94.8698 605.627C101.431 608.989 108.156 612.514 115.045 616.04C128.741 623.419 143.093 631.536 157.692 640.145C172.208 648.918 187.134 658.183 201.978 667.857C216.823 677.614 231.831 687.617 246.675 697.948C276.364 718.363 305.479 739.926 332.789 759.194C360.345 778.379 386.835 795.187 409.963 808.88C456.218 836.346 488.613 851.596 488.613 851.596C490.499 852.498 491.238 854.63 490.417 856.516C489.597 858.319 487.383 859.139 485.579 858.319L485.661 858.483Z" fill="#569188"/>
<path d="M600.397 720.33C607.778 714.591 623.36 704.178 628.363 710.655C633.366 717.132 616.799 728.119 608.352 728.693C616.307 729.103 638.041 729.923 638.041 737.876C638.041 745.829 623.524 744.763 614.995 742.467C621.966 747.878 625.411 762.308 619.752 765.916C614.749 769.114 602.037 755.749 599.166 746.813C600.971 752.142 594.41 771.737 587.931 771.819C576.777 771.819 580.632 752.634 585.306 746.813C581.616 750.748 569.232 754.766 564.721 751.24C560.21 747.714 576.777 738.122 581.288 736.482C574.809 737.138 556.93 731.972 558.406 724.183C559.8 716.476 578.499 722.954 583.42 726.889C580.058 723.364 565.787 707.621 571.528 701.144C577.269 694.667 591.375 713.279 594.082 717.624C593.261 712.705 592.851 693.027 599.084 692.618C605.317 692.208 605.563 716.148 600.561 720.33L600.397 720.33Z" fill="#EBDFE1"/>
<path d="M599.085 724.183C594.082 722.79 588.997 725.741 587.767 730.661C586.619 735.58 588.341 740.499 593.426 741.893C598.429 743.287 601.791 740.827 604.087 736.318C606.302 732.137 604.087 725.577 599.085 724.183Z" fill="#FFA64D"/>
<path d="M1.04682 496.006L3.17923 487.479C60.0961 501.582 112.994 508.223 113.568 508.305L112.502 516.996C112.01 516.996 58.6199 510.191 1.12891 496.006L1.04682 496.006Z" fill="#76AB9F"/>
<path d="M109.14 514.208C111.026 494.859 166.385 450.256 179.179 470.18C191.973 490.103 173.438 500.926 173.438 500.926C173.438 500.926 197.303 502.894 195.745 523.719C194.187 544.544 169.419 539.461 169.419 539.461C169.419 539.461 183.443 550.53 175.652 565.944C167.861 581.358 106.187 545.446 109.14 514.29L109.14 514.208Z" fill="#EBDFE1"/>
<path d="M121.934 493.055C123.41 507.813 120.704 521.751 116.029 535.361C116.029 535.361 106.352 522.489 107.746 513.224C109.14 503.877 121.934 493.137 121.934 493.137L121.934 493.055Z" fill="#76AB9F"/>
</g>
</svg>
